<svg width="22" height="21" viewBox="0 0 22 21" fill="none" xmlns="http://www.w3.org/2000/svg">
<path d="M17.1111 0.921997H4.88889C2.189 0.921997 0 2.87211 0 5.27736V16.1658C0 18.571 2.189 20.5211 4.88889 20.5211H11.759V12.9417H8.89533V9.97461H11.759V7.79149C11.759 5.26102 13.4958 3.88146 16.0307 3.88146C16.885 3.87929 17.7381 3.91848 18.5876 3.99579V6.64167H16.8422C15.4611 6.64167 15.1922 7.22311 15.1922 8.08112V9.97025H18.4922L18.0632 12.9373H15.1727V20.5211H17.1111C19.811 20.5211 22 18.571 22 16.1658V5.27736C22 2.87211 19.811 0.921997 17.1111 0.921997Z" fill="var(--secundary-color)"/>
</svg>
