<svg width="20" height="20" viewBox="0 0 20 20" fill="none" xmlns="http://www.w3.org/2000/svg">
<g clip-path="url(#clip0_47_287)">
<path d="M9.99166 1.66666C5.39166 1.66666 1.66666 5.39999 1.66666 9.99999C1.66666 14.6 5.39166 18.3333 9.99166 18.3333C14.6 18.3333 18.3333 14.6 18.3333 9.99999C18.3333 5.39999 14.6 1.66666 9.99166 1.66666ZM9.99999 16.6667C6.31666 16.6667 3.33332 13.6833 3.33332 9.99999C3.33332 6.31666 6.31666 3.33332 9.99999 3.33332C13.6833 3.33332 16.6667 6.31666 16.6667 9.99999C16.6667 13.6833 13.6833 16.6667 9.99999 16.6667ZM9.81666 5.83332H9.76666C9.43332 5.83332 9.16666 6.09999 9.16666 6.43332V10.3667C9.16666 10.6583 9.31666 10.9333 9.57499 11.0833L13.0333 13.1583C13.3167 13.325 13.6833 13.2417 13.85 12.9583C14.025 12.675 13.9333 12.3 13.6417 12.1333L10.4167 10.2167V6.43332C10.4167 6.09999 10.15 5.83332 9.81666 5.83332V5.83332Z" fill="#4C2D1D"/>
</g>
<defs>
<clipPath id="clip0_47_287">
<rect width="20" height="20" fill="white"/>
</clipPath>
</defs>
</svg>
