<svg width="25" height="25" viewBox="0 0 25 25" fill="none" xmlns="http://www.w3.org/2000/svg">
<g clip-path="url(#clip0_59_106)">
<path d="M12.4896 2.08333C6.73962 2.08333 2.08337 6.75 2.08337 12.5C2.08337 18.25 6.73962 22.9167 12.4896 22.9167C18.25 22.9167 22.9167 18.25 22.9167 12.5C22.9167 6.75 18.25 2.08333 12.4896 2.08333ZM12.5 20.8333C7.89587 20.8333 4.16671 17.1042 4.16671 12.5C4.16671 7.89583 7.89587 4.16667 12.5 4.16667C17.1042 4.16667 20.8334 7.89583 20.8334 12.5C20.8334 17.1042 17.1042 20.8333 12.5 20.8333ZM12.2709 7.29167H12.2084C11.7917 7.29167 11.4584 7.625 11.4584 8.04167V12.9583C11.4584 13.3229 11.6459 13.6667 11.9688 13.8542L16.2917 16.4479C16.6459 16.6563 17.1042 16.5521 17.3125 16.1979C17.5313 15.8438 17.4167 15.375 17.0521 15.1667L13.0209 12.7708V8.04167C13.0209 7.625 12.6875 7.29167 12.2709 7.29167Z" fill="#4C2D1D"/>
</g>
<defs>
<clipPath id="clip0_59_106">
<rect width="25" height="25" fill="white"/>
</clipPath>
</defs>
</svg>
