<svg width="22" height="22" viewBox="0 0 22 22" fill="none" xmlns="http://www.w3.org/2000/svg">
<path d="M6.45833 0.625C3.23717 0.625 0.625 3.23717 0.625 6.45833V15.7917C0.625 19.0128 3.23717 21.625 6.45833 21.625H15.7917C19.0128 21.625 21.625 19.0128 21.625 15.7917V6.45833C21.625 3.23717 19.0128 0.625 15.7917 0.625H6.45833ZM18.125 2.95833C18.769 2.95833 19.2917 3.481 19.2917 4.125C19.2917 4.769 18.769 5.29167 18.125 5.29167C17.481 5.29167 16.9583 4.769 16.9583 4.125C16.9583 3.481 17.481 2.95833 18.125 2.95833ZM11.125 5.29167C14.3462 5.29167 16.9583 7.90383 16.9583 11.125C16.9583 14.3462 14.3462 16.9583 11.125 16.9583C7.90383 16.9583 5.29167 14.3462 5.29167 11.125C5.29167 7.90383 7.90383 5.29167 11.125 5.29167ZM11.125 7.625C10.1967 7.625 9.3065 7.99375 8.65013 8.65013C7.99375 9.3065 7.625 10.1967 7.625 11.125C7.625 12.0533 7.99375 12.9435 8.65013 13.5999C9.3065 14.2563 10.1967 14.625 11.125 14.625C12.0533 14.625 12.9435 14.2563 13.5999 13.5999C14.2563 12.9435 14.625 12.0533 14.625 11.125C14.625 10.1967 14.2563 9.3065 13.5999 8.65013C12.9435 7.99375 12.0533 7.625 11.125 7.625Z" fill="var(--secundary-color)"/>
</svg>
