<svg width="22" height="22" viewBox="0 0 22 22" fill="none" xmlns="http://www.w3.org/2000/svg">
<path d="M19.1667 0.5H2.83333C1.54417 0.5 0.5 1.54417 0.5 2.83333V19.1667C0.5 20.4558 1.54417 21.5 2.83333 21.5H19.1667C20.4558 21.5 21.5 20.4558 21.5 19.1667V2.83333C21.5 1.54417 20.4558 0.5 19.1667 0.5ZM6.02767 16.8333C5.2145 16.8333 4.55533 16.1742 4.55533 15.361V10.1378C4.5565 9.32583 5.21567 8.66667 6.02767 8.66667C6.84083 8.66667 7.5 9.32583 7.5 10.139V15.3622C7.5 16.1742 6.84083 16.8333 6.02767 16.8333ZM5.97633 7.16983C5.07683 7.16983 4.476 6.57017 4.476 5.76983C4.476 4.9695 5.07567 4.36983 6.0755 4.36983C6.975 4.36983 7.57583 4.9695 7.57583 5.76983C7.57583 6.57017 6.97617 7.16983 5.97633 7.16983ZM16.5755 16.8333C15.7892 16.8333 15.151 16.1952 15.151 15.4088V12.3697C15.151 11.1353 14.3915 11 14.1068 11C13.8222 11 12.8725 11.0408 12.8725 12.3697V15.4088C12.8725 16.1952 12.2343 16.8333 11.448 16.8333H11.3535C10.5672 16.8333 9.929 16.1952 9.929 15.4088V10.139C9.929 9.32583 10.5882 8.66667 11.4013 8.66667C12.2145 8.66667 12.8737 9.32583 12.8737 10.139C12.8737 10.139 13.2027 8.66667 15.438 8.66667C16.8602 8.66667 18 9.8065 18 12.3697V15.4088C18 16.1952 17.3618 16.8333 16.5755 16.8333Z" fill="#4C2D1D"/>
</svg>
