<svg width="187" height="25" viewBox="0 0 187 25" fill="none" xmlns="http://www.w3.org/2000/svg">
<path d="M14.2188 16.4531H18.8906C18.7969 17.9844 18.375 19.3438 17.625 20.5312C16.8854 21.7188 15.849 22.6458 14.5156 23.3125C13.1927 23.9792 11.599 24.3125 9.73438 24.3125C8.27604 24.3125 6.96875 24.0625 5.8125 23.5625C4.65625 23.0521 3.66667 22.3229 2.84375 21.375C2.03125 20.4271 1.41146 19.2812 0.984375 17.9375C0.557292 16.5938 0.34375 15.0885 0.34375 13.4219V11.8438C0.34375 10.1771 0.5625 8.67188 1 7.32812C1.44792 5.97396 2.08333 4.82292 2.90625 3.875C3.73958 2.92708 4.73438 2.19792 5.89062 1.6875C7.04688 1.17708 8.33854 0.921875 9.76562 0.921875C11.6615 0.921875 13.2604 1.26562 14.5625 1.95312C15.875 2.64062 16.8906 3.58854 17.6094 4.79688C18.3385 6.00521 18.776 7.38021 18.9219 8.92188H14.2344C14.1823 8.00521 14 7.22917 13.6875 6.59375C13.375 5.94792 12.901 5.46354 12.2656 5.14062C11.6406 4.80729 10.8073 4.64062 9.76562 4.64062C8.98438 4.64062 8.30208 4.78646 7.71875 5.07812C7.13542 5.36979 6.64583 5.8125 6.25 6.40625C5.85417 7 5.55729 7.75 5.35938 8.65625C5.17188 9.55208 5.07812 10.6042 5.07812 11.8125V13.4219C5.07812 14.599 5.16667 15.6354 5.34375 16.5312C5.52083 17.4167 5.79167 18.1667 6.15625 18.7812C6.53125 19.3854 7.01042 19.8438 7.59375 20.1562C8.1875 20.4583 8.90104 20.6094 9.73438 20.6094C10.7135 20.6094 11.5208 20.4531 12.1562 20.1406C12.7917 19.8281 13.276 19.3646 13.6094 18.75C13.9531 18.1354 14.1562 17.3698 14.2188 16.4531Z" fill="#4C2D1D"/>
<path d="M26.0781 0V24H21.5781V0H26.0781ZM25.4375 14.9531H24.2031C24.2135 13.776 24.3698 12.6927 24.6719 11.7031C24.974 10.7031 25.4062 9.83854 25.9688 9.10938C26.5312 8.36979 27.2031 7.79688 27.9844 7.39062C28.776 6.98438 29.651 6.78125 30.6094 6.78125C31.4427 6.78125 32.1979 6.90104 32.875 7.14062C33.5625 7.36979 34.151 7.74479 34.6406 8.26562C35.1406 8.77604 35.526 9.44792 35.7969 10.2812C36.0677 11.1146 36.2031 12.125 36.2031 13.3125V24H31.6719V13.2812C31.6719 12.5312 31.5625 11.9427 31.3438 11.5156C31.1354 11.0781 30.8281 10.7708 30.4219 10.5938C30.026 10.4062 29.5365 10.3125 28.9531 10.3125C28.3073 10.3125 27.7552 10.4323 27.2969 10.6719C26.849 10.9115 26.4896 11.2448 26.2188 11.6719C25.9479 12.0885 25.75 12.5781 25.625 13.1406C25.5 13.7031 25.4375 14.3073 25.4375 14.9531Z" fill="#4C2D1D"/>
<path d="M48.75 20.1875V12.6562C48.75 12.1146 48.6615 11.651 48.4844 11.2656C48.3073 10.8698 48.0312 10.5625 47.6562 10.3438C47.2917 10.125 46.8177 10.0156 46.2344 10.0156C45.7344 10.0156 45.3021 10.1042 44.9375 10.2812C44.5729 10.4479 44.2917 10.6927 44.0938 11.0156C43.8958 11.3281 43.7969 11.6979 43.7969 12.125H39.2969C39.2969 11.4062 39.4635 10.724 39.7969 10.0781C40.1302 9.43229 40.6146 8.86458 41.25 8.375C41.8854 7.875 42.6406 7.48438 43.5156 7.20312C44.401 6.92188 45.3906 6.78125 46.4844 6.78125C47.7969 6.78125 48.9635 7 49.9844 7.4375C51.0052 7.875 51.8073 8.53125 52.3906 9.40625C52.9844 10.2812 53.2812 11.375 53.2812 12.6875V19.9219C53.2812 20.849 53.3385 21.6094 53.4531 22.2031C53.5677 22.7865 53.7344 23.2969 53.9531 23.7344V24H49.4062C49.1875 23.5417 49.0208 22.9688 48.9062 22.2812C48.8021 21.5833 48.75 20.8854 48.75 20.1875ZM49.3438 13.7031L49.375 16.25H46.8594C46.2656 16.25 45.75 16.3177 45.3125 16.4531C44.875 16.5885 44.5156 16.7812 44.2344 17.0312C43.9531 17.2708 43.7448 17.5521 43.6094 17.875C43.4844 18.1979 43.4219 18.5521 43.4219 18.9375C43.4219 19.3229 43.5104 19.6719 43.6875 19.9844C43.8646 20.2865 44.1198 20.526 44.4531 20.7031C44.7865 20.8698 45.1771 20.9531 45.625 20.9531C46.3021 20.9531 46.8906 20.8177 47.3906 20.5469C47.8906 20.276 48.276 19.9427 48.5469 19.5469C48.8281 19.151 48.974 18.776 48.9844 18.4219L50.1719 20.3281C50.0052 20.7552 49.776 21.1979 49.4844 21.6562C49.2031 22.1146 48.8438 22.5469 48.4062 22.9531C47.9688 23.349 47.4427 23.6771 46.8281 23.9375C46.2135 24.1875 45.4844 24.3125 44.6406 24.3125C43.5677 24.3125 42.5938 24.099 41.7188 23.6719C40.8542 23.2344 40.1667 22.6354 39.6562 21.875C39.1562 21.1042 38.9062 20.2292 38.9062 19.25C38.9062 18.3646 39.0729 17.5781 39.4062 16.8906C39.7396 16.2031 40.2292 15.625 40.875 15.1562C41.5312 14.6771 42.349 14.3177 43.3281 14.0781C44.3073 13.8281 45.4427 13.7031 46.7344 13.7031H49.3438Z" fill="#4C2D1D"/>
<path d="M61.1562 10.7031V24H56.6562V7.09375H60.875L61.1562 10.7031ZM60.5 14.9531H59.2812C59.2812 13.7031 59.4427 12.5781 59.7656 11.5781C60.0885 10.5677 60.5417 9.70833 61.125 9C61.7083 8.28125 62.401 7.73438 63.2031 7.35938C64.0156 6.97396 64.9219 6.78125 65.9219 6.78125C66.7135 6.78125 67.4375 6.89583 68.0938 7.125C68.75 7.35417 69.3125 7.71875 69.7812 8.21875C70.2604 8.71875 70.625 9.38021 70.875 10.2031C71.1354 11.026 71.2656 12.0312 71.2656 13.2188V24H66.7344V13.2031C66.7344 12.4531 66.6302 11.8698 66.4219 11.4531C66.2135 11.0365 65.9062 10.7448 65.5 10.5781C65.1042 10.401 64.6146 10.3125 64.0312 10.3125C63.4271 10.3125 62.901 10.4323 62.4531 10.6719C62.0156 10.9115 61.651 11.2448 61.3594 11.6719C61.0781 12.0885 60.8646 12.5781 60.7188 13.1406C60.5729 13.7031 60.5 14.3073 60.5 14.9531Z" fill="#4C2D1D"/>
<path d="M84.6719 20.3125V0H89.2031V24H85.125L84.6719 20.3125ZM73.9844 15.75V15.4219C73.9844 14.1302 74.1302 12.9583 74.4219 11.9062C74.7135 10.8438 75.1406 9.93229 75.7031 9.17188C76.2656 8.41146 76.9583 7.82292 77.7812 7.40625C78.6042 6.98958 79.5417 6.78125 80.5938 6.78125C81.5833 6.78125 82.4479 6.98958 83.1875 7.40625C83.9375 7.82292 84.5729 8.41667 85.0938 9.1875C85.625 9.94792 86.0521 10.849 86.375 11.8906C86.6979 12.9219 86.9323 14.0521 87.0781 15.2812V16C86.9323 17.1771 86.6979 18.2708 86.375 19.2812C86.0521 20.2917 85.625 21.1771 85.0938 21.9375C84.5729 22.6875 83.9375 23.2708 83.1875 23.6875C82.4375 24.1042 81.5625 24.3125 80.5625 24.3125C79.5104 24.3125 78.5729 24.099 77.75 23.6719C76.9375 23.2448 76.25 22.6458 75.6875 21.875C75.1354 21.1042 74.7135 20.1979 74.4219 19.1562C74.1302 18.1146 73.9844 16.9792 73.9844 15.75ZM78.4844 15.4219V15.75C78.4844 16.4479 78.5365 17.099 78.6406 17.7031C78.7552 18.3073 78.9375 18.8438 79.1875 19.3125C79.4479 19.7708 79.7812 20.1302 80.1875 20.3906C80.6042 20.6406 81.1094 20.7656 81.7031 20.7656C82.474 20.7656 83.1094 20.5938 83.6094 20.25C84.1094 19.8958 84.4896 19.4115 84.75 18.7969C85.0208 18.1823 85.1771 17.474 85.2188 16.6719V14.625C85.1875 13.9688 85.0938 13.3802 84.9375 12.8594C84.7917 12.3281 84.5729 11.875 84.2812 11.5C84 11.125 83.6458 10.8333 83.2188 10.625C82.8021 10.4167 82.3073 10.3125 81.7344 10.3125C81.151 10.3125 80.651 10.4479 80.2344 10.7188C79.8177 10.9792 79.4792 11.3385 79.2188 11.7969C78.9688 12.2552 78.7812 12.7969 78.6562 13.4219C78.5417 14.0365 78.4844 14.7031 78.4844 15.4219Z" fill="#4C2D1D"/>
<path d="M97.2188 10.7812V24H92.7188V7.09375H96.9531L97.2188 10.7812ZM102.312 6.98438L102.234 11.1562C102.016 11.125 101.75 11.099 101.438 11.0781C101.135 11.0469 100.859 11.0312 100.609 11.0312C99.974 11.0312 99.4219 11.1146 98.9531 11.2812C98.4948 11.4375 98.1094 11.6719 97.7969 11.9844C97.4948 12.2969 97.2656 12.6771 97.1094 13.125C96.9635 13.5729 96.8802 14.0833 96.8594 14.6562L95.9531 14.375C95.9531 13.2812 96.0625 12.276 96.2812 11.3594C96.5 10.4323 96.8177 9.625 97.2344 8.9375C97.6615 8.25 98.1823 7.71875 98.7969 7.34375C99.4115 6.96875 100.115 6.78125 100.906 6.78125C101.156 6.78125 101.411 6.80208 101.672 6.84375C101.932 6.875 102.146 6.92188 102.312 6.98438Z" fill="#4C2D1D"/>
<path d="M113.031 20.1875V12.6562C113.031 12.1146 112.943 11.651 112.766 11.2656C112.589 10.8698 112.312 10.5625 111.938 10.3438C111.573 10.125 111.099 10.0156 110.516 10.0156C110.016 10.0156 109.583 10.1042 109.219 10.2812C108.854 10.4479 108.573 10.6927 108.375 11.0156C108.177 11.3281 108.078 11.6979 108.078 12.125H103.578C103.578 11.4062 103.745 10.724 104.078 10.0781C104.411 9.43229 104.896 8.86458 105.531 8.375C106.167 7.875 106.922 7.48438 107.797 7.20312C108.682 6.92188 109.672 6.78125 110.766 6.78125C112.078 6.78125 113.245 7 114.266 7.4375C115.286 7.875 116.089 8.53125 116.672 9.40625C117.266 10.2812 117.562 11.375 117.562 12.6875V19.9219C117.562 20.849 117.62 21.6094 117.734 22.2031C117.849 22.7865 118.016 23.2969 118.234 23.7344V24H113.688C113.469 23.5417 113.302 22.9688 113.188 22.2812C113.083 21.5833 113.031 20.8854 113.031 20.1875ZM113.625 13.7031L113.656 16.25H111.141C110.547 16.25 110.031 16.3177 109.594 16.4531C109.156 16.5885 108.797 16.7812 108.516 17.0312C108.234 17.2708 108.026 17.5521 107.891 17.875C107.766 18.1979 107.703 18.5521 107.703 18.9375C107.703 19.3229 107.792 19.6719 107.969 19.9844C108.146 20.2865 108.401 20.526 108.734 20.7031C109.068 20.8698 109.458 20.9531 109.906 20.9531C110.583 20.9531 111.172 20.8177 111.672 20.5469C112.172 20.276 112.557 19.9427 112.828 19.5469C113.109 19.151 113.255 18.776 113.266 18.4219L114.453 20.3281C114.286 20.7552 114.057 21.1979 113.766 21.6562C113.484 22.1146 113.125 22.5469 112.688 22.9531C112.25 23.349 111.724 23.6771 111.109 23.9375C110.495 24.1875 109.766 24.3125 108.922 24.3125C107.849 24.3125 106.875 24.099 106 23.6719C105.135 23.2344 104.448 22.6354 103.938 21.875C103.438 21.1042 103.188 20.2292 103.188 19.25C103.188 18.3646 103.354 17.5781 103.688 16.8906C104.021 16.2031 104.51 15.625 105.156 15.1562C105.812 14.6771 106.63 14.3177 107.609 14.0781C108.589 13.8281 109.724 13.7031 111.016 13.7031H113.625Z" fill="#4C2D1D"/>
<path d="M130.172 19.3281C130.172 19.0052 130.078 18.7135 129.891 18.4531C129.703 18.1927 129.354 17.9531 128.844 17.7344C128.344 17.5052 127.62 17.2969 126.672 17.1094C125.818 16.9219 125.021 16.6875 124.281 16.4062C123.552 16.1146 122.917 15.7656 122.375 15.3594C121.844 14.9531 121.427 14.474 121.125 13.9219C120.823 13.3594 120.672 12.7188 120.672 12C120.672 11.2917 120.823 10.625 121.125 10C121.438 9.375 121.88 8.82292 122.453 8.34375C123.036 7.85417 123.745 7.47396 124.578 7.20312C125.422 6.92188 126.37 6.78125 127.422 6.78125C128.891 6.78125 130.151 7.01562 131.203 7.48438C132.266 7.95312 133.078 8.59896 133.641 9.42188C134.214 10.2344 134.5 11.1615 134.5 12.2031H130C130 11.7656 129.906 11.375 129.719 11.0312C129.542 10.6771 129.26 10.401 128.875 10.2031C128.5 9.99479 128.01 9.89062 127.406 9.89062C126.906 9.89062 126.474 9.97917 126.109 10.1562C125.745 10.3229 125.464 10.5521 125.266 10.8438C125.078 11.125 124.984 11.4375 124.984 11.7812C124.984 12.0417 125.036 12.276 125.141 12.4844C125.255 12.6823 125.438 12.8646 125.688 13.0312C125.938 13.1979 126.26 13.3542 126.656 13.5C127.062 13.6354 127.562 13.7604 128.156 13.875C129.375 14.125 130.464 14.4531 131.422 14.8594C132.38 15.2552 133.141 15.7969 133.703 16.4844C134.266 17.1615 134.547 18.0521 134.547 19.1562C134.547 19.9062 134.38 20.5938 134.047 21.2188C133.714 21.8438 133.234 22.3906 132.609 22.8594C131.984 23.3177 131.234 23.6771 130.359 23.9375C129.495 24.1875 128.521 24.3125 127.438 24.3125C125.865 24.3125 124.531 24.0312 123.438 23.4688C122.354 22.9062 121.531 22.1927 120.969 21.3281C120.417 20.4531 120.141 19.5573 120.141 18.6406H124.406C124.427 19.2552 124.583 19.75 124.875 20.125C125.177 20.5 125.557 20.7708 126.016 20.9375C126.484 21.1042 126.99 21.1875 127.531 21.1875C128.115 21.1875 128.599 21.1094 128.984 20.9531C129.37 20.7865 129.661 20.5677 129.859 20.2969C130.068 20.0156 130.172 19.6927 130.172 19.3281Z" fill="#4C2D1D"/>
<path d="M146.594 20.1875V12.6562C146.594 12.1146 146.505 11.651 146.328 11.2656C146.151 10.8698 145.875 10.5625 145.5 10.3438C145.135 10.125 144.661 10.0156 144.078 10.0156C143.578 10.0156 143.146 10.1042 142.781 10.2812C142.417 10.4479 142.135 10.6927 141.938 11.0156C141.74 11.3281 141.641 11.6979 141.641 12.125H137.141C137.141 11.4062 137.307 10.724 137.641 10.0781C137.974 9.43229 138.458 8.86458 139.094 8.375C139.729 7.875 140.484 7.48438 141.359 7.20312C142.245 6.92188 143.234 6.78125 144.328 6.78125C145.641 6.78125 146.807 7 147.828 7.4375C148.849 7.875 149.651 8.53125 150.234 9.40625C150.828 10.2812 151.125 11.375 151.125 12.6875V19.9219C151.125 20.849 151.182 21.6094 151.297 22.2031C151.411 22.7865 151.578 23.2969 151.797 23.7344V24H147.25C147.031 23.5417 146.865 22.9688 146.75 22.2812C146.646 21.5833 146.594 20.8854 146.594 20.1875ZM147.188 13.7031L147.219 16.25H144.703C144.109 16.25 143.594 16.3177 143.156 16.4531C142.719 16.5885 142.359 16.7812 142.078 17.0312C141.797 17.2708 141.589 17.5521 141.453 17.875C141.328 18.1979 141.266 18.5521 141.266 18.9375C141.266 19.3229 141.354 19.6719 141.531 19.9844C141.708 20.2865 141.964 20.526 142.297 20.7031C142.63 20.8698 143.021 20.9531 143.469 20.9531C144.146 20.9531 144.734 20.8177 145.234 20.5469C145.734 20.276 146.12 19.9427 146.391 19.5469C146.672 19.151 146.818 18.776 146.828 18.4219L148.016 20.3281C147.849 20.7552 147.62 21.1979 147.328 21.6562C147.047 22.1146 146.688 22.5469 146.25 22.9531C145.812 23.349 145.286 23.6771 144.672 23.9375C144.057 24.1875 143.328 24.3125 142.484 24.3125C141.411 24.3125 140.438 24.099 139.562 23.6719C138.698 23.2344 138.01 22.6354 137.5 21.875C137 21.1042 136.75 20.2292 136.75 19.25C136.75 18.3646 136.917 17.5781 137.25 16.8906C137.583 16.2031 138.073 15.625 138.719 15.1562C139.375 14.6771 140.193 14.3177 141.172 14.0781C142.151 13.8281 143.286 13.7031 144.578 13.7031H147.188Z" fill="#4C2D1D"/>
<path d="M159 10.7031V24H154.5V7.09375H158.719L159 10.7031ZM158.344 14.9531H157.125C157.125 13.7031 157.286 12.5781 157.609 11.5781C157.932 10.5677 158.385 9.70833 158.969 9C159.552 8.28125 160.245 7.73438 161.047 7.35938C161.859 6.97396 162.766 6.78125 163.766 6.78125C164.557 6.78125 165.281 6.89583 165.938 7.125C166.594 7.35417 167.156 7.71875 167.625 8.21875C168.104 8.71875 168.469 9.38021 168.719 10.2031C168.979 11.026 169.109 12.0312 169.109 13.2188V24H164.578V13.2031C164.578 12.4531 164.474 11.8698 164.266 11.4531C164.057 11.0365 163.75 10.7448 163.344 10.5781C162.948 10.401 162.458 10.3125 161.875 10.3125C161.271 10.3125 160.745 10.4323 160.297 10.6719C159.859 10.9115 159.495 11.2448 159.203 11.6719C158.922 12.0885 158.708 12.5781 158.562 13.1406C158.417 13.7031 158.344 14.3073 158.344 14.9531Z" fill="#4C2D1D"/>
<path d="M181.656 20.1875V12.6562C181.656 12.1146 181.568 11.651 181.391 11.2656C181.214 10.8698 180.938 10.5625 180.562 10.3438C180.198 10.125 179.724 10.0156 179.141 10.0156C178.641 10.0156 178.208 10.1042 177.844 10.2812C177.479 10.4479 177.198 10.6927 177 11.0156C176.802 11.3281 176.703 11.6979 176.703 12.125H172.203C172.203 11.4062 172.37 10.724 172.703 10.0781C173.036 9.43229 173.521 8.86458 174.156 8.375C174.792 7.875 175.547 7.48438 176.422 7.20312C177.307 6.92188 178.297 6.78125 179.391 6.78125C180.703 6.78125 181.87 7 182.891 7.4375C183.911 7.875 184.714 8.53125 185.297 9.40625C185.891 10.2812 186.188 11.375 186.188 12.6875V19.9219C186.188 20.849 186.245 21.6094 186.359 22.2031C186.474 22.7865 186.641 23.2969 186.859 23.7344V24H182.312C182.094 23.5417 181.927 22.9688 181.812 22.2812C181.708 21.5833 181.656 20.8854 181.656 20.1875ZM182.25 13.7031L182.281 16.25H179.766C179.172 16.25 178.656 16.3177 178.219 16.4531C177.781 16.5885 177.422 16.7812 177.141 17.0312C176.859 17.2708 176.651 17.5521 176.516 17.875C176.391 18.1979 176.328 18.5521 176.328 18.9375C176.328 19.3229 176.417 19.6719 176.594 19.9844C176.771 20.2865 177.026 20.526 177.359 20.7031C177.693 20.8698 178.083 20.9531 178.531 20.9531C179.208 20.9531 179.797 20.8177 180.297 20.5469C180.797 20.276 181.182 19.9427 181.453 19.5469C181.734 19.151 181.88 18.776 181.891 18.4219L183.078 20.3281C182.911 20.7552 182.682 21.1979 182.391 21.6562C182.109 22.1146 181.75 22.5469 181.312 22.9531C180.875 23.349 180.349 23.6771 179.734 23.9375C179.12 24.1875 178.391 24.3125 177.547 24.3125C176.474 24.3125 175.5 24.099 174.625 23.6719C173.76 23.2344 173.073 22.6354 172.562 21.875C172.062 21.1042 171.812 20.2292 171.812 19.25C171.812 18.3646 171.979 17.5781 172.312 16.8906C172.646 16.2031 173.135 15.625 173.781 15.1562C174.438 14.6771 175.255 14.3177 176.234 14.0781C177.214 13.8281 178.349 13.7031 179.641 13.7031H182.25Z" fill="#4C2D1D"/>
</svg>
